<svg width="24" height="24" viewBox="0 0 24 24" fill="none" xmlns="http://www.w3.org/2000/svg">
<path d="M6.45007 8.52692H14.6249" stroke="black" stroke-width="1.5" stroke-linecap="round" stroke-linejoin="round"/>
<path d="M6.45007 11.9269H11.0038" stroke="black" stroke-width="1.5" stroke-linecap="round" stroke-linejoin="round"/>
<path d="M2.74988 6.76233C2.74988 4.55319 4.54074 2.76233 6.74988 2.76233H17.2499C19.459 2.76233 21.2499 4.55319 21.2499 6.76233L21.2499 13.6902C21.2499 15.8994 19.459 17.6902 17.2499 17.6902H15.5222C15.195 17.6902 14.8884 17.8503 14.7015 18.1189L12.8206 20.8209C12.4227 21.3925 11.577 21.3925 11.1791 20.8209L9.29829 18.1189C9.11133 17.8503 8.80479 17.6902 8.47755 17.6902H6.74988C4.54074 17.6902 2.74988 15.8994 2.74988 13.6902V6.76233Z" stroke="black" stroke-width="1.5" stroke-linejoin="round"/>
</svg>
