<svg width="24" height="24" viewBox="0 0 24 24" fill="none" xmlns="http://www.w3.org/2000/svg">
<path d="M15 9C15 10.6569 13.6569 12 12 12C10.3431 12 9 10.6569 9 9C9 7.34315 10.3431 6 12 6C13.6569 6 15 7.34315 15 9Z" stroke="black" stroke-width="1.5" stroke-linecap="round"/>
<path d="M2.75 8C2.75 5.10051 5.10051 2.75 8 2.75H16C18.8995 2.75 21.25 5.10051 21.25 8V16C21.25 18.8995 18.8995 21.25 16 21.25H8C5.10051 21.25 2.75 18.8995 2.75 16V8Z" stroke="black" stroke-width="1.5" stroke-linecap="round"/>
<path d="M7.36747 15.4767C7.6592 14.796 8.68333 14.5485 9.38452 14.7869C10.0024 14.9969 10.8558 15.1667 12.0003 15.1667C13.1448 15.1667 13.9983 14.9969 14.6161 14.7869C15.3173 14.5485 16.3414 14.796 16.6332 15.4767L17.8055 18.2122C18.3711 19.532 17.4031 21.0001 15.9672 21.0001H8.0334C6.59757 21.0001 5.62951 19.532 6.19511 18.2122L7.36747 15.4767Z" stroke="black" stroke-width="1.5" stroke-linecap="round"/>
</svg>
