<svg width="24" height="24" viewBox="0 0 24 24" fill="none" xmlns="http://www.w3.org/2000/svg">
<path d="M18.4661 18.0676C18.4296 19.6978 17.0975 21.0003 15.4669 21.0003H8.53332C6.90268 21.0003 5.57065 19.6978 5.53407 18.0676L5.31864 8.46696C5.28088 6.78418 6.63469 5.39966 8.31789 5.39966H15.6823C17.3655 5.39966 18.7193 6.78418 18.6816 8.46696L18.4661 18.0676Z" stroke="black" stroke-width="1.5" stroke-linecap="round"/>
<path d="M4.00049 5.39966H20.0002" stroke="black" stroke-width="1.5" stroke-linecap="round"/>
<path d="M9.00698 3.70587L9.3925 3.30577C9.58099 3.11015 9.84096 2.99963 10.1126 2.99963H13.8876C14.1592 2.99963 14.4192 3.11015 14.6077 3.30577L14.9932 3.70587C15.6052 4.341 15.1551 5.39974 14.2731 5.39974H9.72709C8.84511 5.39974 8.39501 4.341 9.00698 3.70587Z" stroke="black" stroke-width="1.5" stroke-linecap="round"/>
</svg>
