<svg width="24" height="24" viewBox="0 0 24 24" fill="none" xmlns="http://www.w3.org/2000/svg">
<path d="M21 12C21 16.9706 16.9706 21 12 21C7.02944 21 3 16.9706 3 12C3 7.02944 7.02944 3 12 3C16.9706 3 21 7.02944 21 12Z" stroke="black" stroke-width="1.5" stroke-linecap="round"/>
<path d="M11.9998 16L11.9998 12.1773C11.9998 11.7361 11.4701 11.5111 11.1526 11.8175L10.8066 12.1513" stroke="black" stroke-width="1.5" stroke-linecap="round"/>
<path d="M13.3726 16H10.6274" stroke="black" stroke-width="1.5" stroke-linecap="round"/>
<path d="M13 9C13 9.55228 12.5523 10 12 10C11.4477 10 11 9.55228 11 9C11 8.44772 11.4477 8 12 8C12.5523 8 13 8.44772 13 9Z" fill="black"/>
</svg>
