<svg width="24" height="24" viewBox="0 0 24 24" fill="none" xmlns="http://www.w3.org/2000/svg">
<path d="M4 7.5C4 5.01472 6.01472 3 8.5 3H14.5C16.9853 3 19 5.01472 19 7.5V16.5C19 18.9853 16.9853 21 14.5 21H8.5C6.01472 21 4 18.9853 4 16.5V7.5Z" stroke="black" stroke-width="1.5" stroke-linejoin="round"/>
<path d="M9 3H17.5C19.9853 3 22 5.01472 22 7.5V16.5C22 18.9853 19.9853 21 17.5 21H9" stroke="black" stroke-width="1.5" stroke-linejoin="round"/>
<path d="M16 8H12" stroke="black" stroke-width="1.5" stroke-linecap="round" stroke-linejoin="round"/>
<path d="M5 8H3" stroke="black" stroke-width="1.5" stroke-linecap="round" stroke-linejoin="round"/>
<path d="M5 16H3" stroke="black" stroke-width="1.5" stroke-linecap="round" stroke-linejoin="round"/>
<path d="M16 12H12" stroke="black" stroke-width="1.5" stroke-linecap="round" stroke-linejoin="round"/>
<path d="M16 16H12" stroke="black" stroke-width="1.5" stroke-linecap="round" stroke-linejoin="round"/>
<path d="M10 8C10 8.55228 9.55228 9 9 9C8.44772 9 8 8.55228 8 8C8 7.44772 8.44772 7 9 7C9.55228 7 10 7.44772 10 8Z" fill="black"/>
<path d="M10 12C10 12.5523 9.55228 13 9 13C8.44772 13 8 12.5523 8 12C8 11.4477 8.44772 11 9 11C9.55228 11 10 11.4477 10 12Z" fill="black"/>
<path d="M10 16C10 16.5523 9.55228 17 9 17C8.44772 17 8 16.5523 8 16C8 15.4477 8.44772 15 9 15C9.55228 15 10 15.4477 10 16Z" fill="black"/>
</svg>
