<svg width="24" height="24" viewBox="0 0 24 24" fill="none" xmlns="http://www.w3.org/2000/svg">
<path d="M4.00488 13.2481C4.00488 11.5912 5.34803 10.248 7.00488 10.248H16.9954C18.6523 10.248 19.9954 11.5912 19.9954 13.248V18.0003C19.9954 19.6572 18.6523 21.0003 16.9954 21.0003H7.00488C5.34803 21.0003 4.00488 19.6572 4.00488 18.0003V13.2481Z" stroke="black" stroke-width="1.5" stroke-linecap="round"/>
<path d="M16.4991 10.2481V7.49941C16.4991 5.01425 14.4845 2.99963 11.9993 2.99963C9.51413 2.99963 7.49951 5.01425 7.49951 7.49941V10.2481" stroke="black" stroke-width="1.5" stroke-linecap="round"/>
<path d="M13.4995 14.9241C13.4995 15.7525 12.8279 16.4241 11.9995 16.4241C11.1711 16.4241 10.4995 15.7525 10.4995 14.9241C10.4995 14.0956 11.1711 13.4241 11.9995 13.4241C12.8279 13.4241 13.4995 14.0956 13.4995 14.9241Z" fill="black"/>
<path d="M12.0435 17.8244V15.7439" stroke="black" stroke-width="1.5" stroke-linecap="round"/>
</svg>
