<svg width="24" height="24" viewBox="0 0 24 24" fill="none" xmlns="http://www.w3.org/2000/svg">
<path d="M14.965 11.248L18.9859 11.248" stroke="black" stroke-width="1.5" stroke-linecap="round"/>
<path d="M18.0176 9.5515L18.9742 10.5597C19.3402 10.9456 19.3402 11.5504 18.9742 11.9362L18.0176 12.9445" stroke="black" stroke-width="1.5" stroke-linecap="round"/>
<path d="M15.9805 6.2386C15.9805 4.3128 14.4193 2.75163 12.4935 2.75163L7.53124 2.75162C5.60543 2.75161 4.04425 4.31279 4.04425 6.2386V8.70432M15.9805 16.2573C15.9805 18.1831 14.4193 19.7443 12.4935 19.7443H12.0982" stroke="black" stroke-width="1.5" stroke-linecap="round"/>
<path d="M6.49157 20.5158L8.33971 21.0983C10.273 21.7076 12.2415 20.264 12.2415 18.237L12.2415 7.5354C12.2415 6.22596 11.3923 5.0678 10.1434 4.67416L8.59584 4.18639C6.34039 3.4755 4.0437 5.15967 4.0437 7.52451L4.0437 17.1777C4.0437 18.7053 5.03454 20.0565 6.49157 20.5158Z" stroke="black" stroke-width="1.5" stroke-linecap="round"/>
<path d="M6.49157 20.5158L8.33971 21.0983C10.273 21.7076 12.2415 20.264 12.2415 18.237L12.2415 7.5354C12.2415 6.22596 11.3923 5.0678 10.1434 4.67416L8.59584 4.18639C6.34039 3.4755 4.0437 5.15967 4.0437 7.52451L4.0437 17.1777C4.0437 18.7053 5.03454 20.0565 6.49157 20.5158Z" stroke="black" stroke-width="1.5" stroke-linecap="round"/>
</svg>
