<svg width="24" height="24" viewBox="0 0 24 24" fill="none" xmlns="http://www.w3.org/2000/svg">
<path d="M15.501 6.4C15.501 8.27777 13.934 9.8 12.001 9.8C10.068 9.8 8.50098 8.27777 8.50098 6.4C8.50098 4.52223 10.068 3 12.001 3C13.934 3 15.501 4.52223 15.501 6.4Z" stroke="black" stroke-width="1.5" stroke-linecap="round"/>
<path d="M6.22477 13.4767C6.51651 12.7959 7.52427 12.5638 8.2076 12.8494C9.01899 13.1885 10.2427 13.5 12.0005 13.5C13.7583 13.5 14.982 13.1885 15.7934 12.8494C16.4767 12.5638 17.4845 12.796 17.7762 13.4767L19.2083 16.8182C20.0567 18.7978 18.6046 21 16.4509 21H7.55011C5.39636 21 3.94427 18.7978 4.79267 16.8182L6.22477 13.4767Z" stroke="black" stroke-width="1.5" stroke-linecap="round"/>
</svg>
