<svg width="24" height="24" viewBox="0 0 24 24" fill="none" xmlns="http://www.w3.org/2000/svg">
<path d="M4.5 6.00046C4.5 4.3436 5.84315 3.00046 7.5 3.00046H16.5C18.1569 3.00046 19.5 4.3436 19.5 6.00046V19.1426C19.5 20.6182 17.5931 21.207 16.7611 19.9883L16.615 19.7742C15.8488 18.6518 14.2104 18.604 13.38 19.6798L13.1874 19.9293C12.5869 20.7072 11.413 20.7072 10.8125 19.9293L10.62 19.6798C9.78963 18.604 8.15115 18.6519 7.38495 19.7743L7.23887 19.9883C6.40692 21.207 4.5 20.6182 4.5 19.1426V6.00046Z" stroke="black" stroke-width="1.5"/>
<path d="M7.99994 7.99963H15.9999" stroke="black" stroke-width="1.5" stroke-linecap="round"/>
<path d="M7.99994 10.9996H15.9999" stroke="black" stroke-width="1.5" stroke-linecap="round"/>
<path d="M7.99994 13.9996H15.9999" stroke="black" stroke-width="1.5" stroke-linecap="round"/>
</svg>
