<svg width="24" height="24" viewBox="0 0 24 24" fill="none" xmlns="http://www.w3.org/2000/svg">
<path d="M7.5 15H6.33333C4.49238 15 3 16.4924 3 18.3333C3 18.7015 3.29848 19 3.66667 19H20.2C20.6418 19 21 18.6418 21 18.2C21 16.4327 19.5673 15 17.8 15H16.5M14 8C14 9.10457 13.1046 10 12 10C10.8954 10 10 9.10457 10 8C10 6.89543 10.8954 6 12 6C13.1046 6 14 6.89543 14 8ZM7.85714 19H16.1429C16.6162 19 17 18.6162 17 18.1429V18C17 15.2386 14.7614 13 12 13C9.23858 13 7 15.2386 7 18V18.1429C7 18.6162 7.38376 19 7.85714 19Z" stroke="black" stroke-width="1.5" stroke-linecap="round"/>
<path d="M16.25 10C16.25 10.9665 17.0335 11.75 18 11.75C18.9665 11.75 19.75 10.9665 19.75 10C19.75 9.0335 18.9665 8.25 18 8.25C17.0335 8.25 16.25 9.0335 16.25 10ZM4.33984 10C4.33984 10.9665 5.12335 11.75 6.08984 11.75C7.05634 11.75 7.83984 10.9665 7.83984 10C7.83984 9.0335 7.05634 8.25 6.08984 8.25C5.12335 8.25 4.33984 9.0335 4.33984 10Z" stroke="black" stroke-width="1.5" stroke-linecap="round"/>
</svg>
