<svg width="24" height="24" viewBox="0 0 24 24" fill="none" xmlns="http://www.w3.org/2000/svg">
<path d="M8.69324 16.3699V17.9996C8.69324 18.5519 9.14095 18.9996 9.69324 18.9996H12.8932" stroke="black" stroke-width="1.5" stroke-linecap="round" stroke-linejoin="round"/>
<path d="M12.9715 15.6303H5.24988C3.86917 15.6303 2.74988 14.511 2.74988 13.1303V5.30328C2.74988 3.92257 3.86917 2.80328 5.24988 2.80328H17.9061C19.2868 2.80328 20.4061 3.92257 20.4061 5.30328V8.14415" stroke="black" stroke-width="1.5" stroke-linecap="round" stroke-linejoin="round"/>
<path d="M2.74988 12.6541H12.8934" stroke="black" stroke-width="1.5" stroke-linecap="round" stroke-linejoin="round"/>
<path d="M21.2478 9.99963V19.2986C21.2478 20.4031 20.3524 21.2986 19.2478 21.2986H14.9589C13.8543 21.2986 12.9589 20.4031 12.9589 19.2986L12.9589 9.99963C12.9589 8.89506 13.8543 7.99963 14.9589 7.99963L19.2478 7.99963C20.3524 7.99963 21.2478 8.89507 21.2478 9.99963Z" stroke="black" stroke-width="1.5" stroke-linecap="round" stroke-linejoin="round"/>
<path d="M16.5331 10.5H17.6767" stroke="black" stroke-width="1.5" stroke-linecap="round" stroke-linejoin="round"/>
</svg>
