<svg width="24" height="24" viewBox="0 0 24 24" fill="none" xmlns="http://www.w3.org/2000/svg">
<path d="M21.25 12C21.25 17.1086 17.1086 21.25 12 21.25C6.89137 21.25 2.75 17.1086 2.75 12C2.75 6.89137 6.89137 2.75 12 2.75C17.1086 2.75 21.25 6.89137 21.25 12Z" stroke="black" stroke-width="1.5"/>
<path d="M11.9986 14.437C11.9986 12.9242 14.9688 12.3517 14.9688 9.97073C14.9688 8.33031 13.639 7.00049 11.9986 7.00049C10.3581 7.00049 9.02832 8.33031 9.02832 9.97073C9.02832 10.2117 9.05701 10.4459 9.11117 10.6703" stroke="black" stroke-width="1.5" stroke-linecap="round"/>
<path d="M12.748 17.0005C12.748 17.4147 12.4123 17.7505 11.998 17.7505C11.5838 17.7505 11.248 17.4147 11.248 17.0005C11.248 16.5863 11.5838 16.2505 11.998 16.2505C12.4123 16.2505 12.748 16.5863 12.748 17.0005Z" fill="black"/>
</svg>
