<svg width="24" height="24" viewBox="0 0 24 24" fill="none" xmlns="http://www.w3.org/2000/svg">
<path d="M8.75965 17.842L8.75904 17.9976C8.75199 19.7918 10.2045 21.25 11.9987 21.25C13.7829 21.25 15.2313 19.8073 15.2383 18.0231L15.239 17.842M8.75965 17.842C8.75965 16.5938 8.0055 15.499 7.09264 14.6478C5.74405 13.3903 4.9043 11.6197 4.9043 9.65806C4.9043 5.84284 8.08085 2.75 11.9993 2.75C15.9178 2.75 19.0944 5.84284 19.0944 9.65806C19.0944 11.6197 18.2546 13.3903 16.906 14.6478C15.9932 15.499 15.239 16.5938 15.239 17.842M8.75965 17.842H15.239M10.3116 12.8858L11.2072 14.0488C11.6075 14.5685 12.3913 14.5686 12.7917 14.0489L13.6878 12.8858" stroke="black" stroke-width="1.5" stroke-linecap="round" stroke-linejoin="round"/>
</svg>
