<?xml version="1.0" encoding="utf-8"?><svg version="1.1" id="Layer_1" xmlns="http://www.w3.org/2000/svg" xmlns:xlink="http://www.w3.org/1999/xlink" x="0px" y="0px" viewBox="0 0 64.922 122.879" enable-background="new 0 0 64.922 122.879" xml:space="preserve"><g><path d="M28.305,119.383h7.994c1.159-4.377,3.392-8.318,6.397-11.521c3.184-3.393,7.24-5.963,11.811-7.352 c0.868-4.438,1.729-8.879,2.582-13.322L7.777,86.289c0.975,4.799,1.959,9.607,2.89,14.402c4.338,1.424,8.189,3.92,11.24,7.17 C24.913,111.064,27.146,115.006,28.305,119.383L28.305,119.383z M40.322,119.381h4.677l0.195,0.01l0.288,0.006 c1.804-0.02,3.104-0.357,4-1.088c1.009-0.826,1.649-2.268,2.063-4.434l1.791-9.252c-3.091,1.287-5.849,3.219-8.106,5.623 c-2.411,2.57-4.25,5.684-5.313,9.135H40.322L40.322,119.381z M45.58,122.875c-0.262,0.004-0.53,0.002-0.806-0.006h-7.103H26.931 h-7.008c-3.038,0.09-5.291-0.469-6.996-1.861c-1.699-1.389-2.716-3.488-3.288-6.477c-2.974-13.83-5.57-28.258-8.169-42.195 c-1.248-6.619-2.329-12.348-0.48-19.374c0.811-3.085,2.045-5.64,3.531-7.921c1.453-2.229,3.14-4.178,4.907-6.108 c9.725-10.623,9.521-11.332,6.392-22.191c-0.272-0.947-0.565-1.964-0.836-2.915c-1.386-0.028-2.644-0.605-3.559-1.521 c-0.938-0.938-1.521-2.233-1.521-3.66V5.182c0-1.42,0.583-2.714,1.521-3.654l0.007-0.007C12.376,0.582,13.668,0,15.086,0h34.75 c1.427,0,2.723,0.583,3.66,1.521c0.938,0.938,1.521,2.235,1.521,3.661v3.463c0,1.425-0.584,2.722-1.521,3.66 c-0.916,0.916-2.173,1.493-3.559,1.521c-0.271,0.951-0.563,1.968-0.836,2.915c-3.13,10.86-3.334,11.569,6.392,22.191 c1.768,1.931,3.454,3.879,4.907,6.108c1.485,2.281,2.72,4.836,3.531,7.921c1.849,7.026,0.768,12.755-0.48,19.374 c-2.649,14.051-5.436,28.092-8.155,42.131c-0.571,3.023-1.59,5.143-3.302,6.541C50.401,122.309,48.327,122.883,45.58,122.875 L45.58,122.875z M60.04,71.646c0.757-4.012,1.444-7.678,1.386-11.465L5.549,75.141c0.665,3.426,1.36,6.869,2.06,10.318 L60.04,71.646L60.04,71.646z M61.418,59.83c-0.055-1.938-0.309-3.911-0.854-5.982c-0.708-2.694-1.785-4.924-3.081-6.913 c-1.329-2.04-2.901-3.854-4.553-5.658c-11.04-12.059-10.803-12.881-7.169-25.491l0.553-1.925H18.607l0.552,1.925 c3.634,12.609,3.872,13.432-7.169,25.491c-1.651,1.804-3.224,3.618-4.553,5.658c-1.295,1.989-2.373,4.219-3.081,6.913 c-0.545,2.071-0.799,4.044-0.854,5.982H61.418L61.418,59.83z M49.836,3.489h-34.75c-0.468,0-0.892,0.189-1.194,0.492l-0.007,0.007 c-0.303,0.302-0.492,0.726-0.492,1.194v3.463c0,0.463,0.192,0.886,0.499,1.193c0.308,0.308,0.731,0.5,1.194,0.5h34.75 c0.461,0,0.885-0.191,1.193-0.5c0.307-0.307,0.499-0.731,0.499-1.192V5.182c0-0.462-0.191-0.886-0.499-1.194 C50.722,3.681,50.299,3.489,49.836,3.489L49.836,3.489z M11.432,104.693c0.576,3.07,1.122,6.135,1.625,9.182 c0.414,2.166,1.055,3.607,2.064,4.434c1.015,0.828,2.549,1.152,4.747,1.078l0.055-0.004l4.764-0.002 c-1.063-3.451-2.903-6.564-5.314-9.135C17.155,107.885,14.456,105.98,11.432,104.693L11.432,104.693z"/></g></svg>