<svg id="Layer_1" data-name="Layer 1" xmlns="http://www.w3.org/2000/svg" viewBox="0 0 122.88 119"><defs><style>.cls-1{fill-rule:evenodd;}</style></defs><title>electric-car-ev</title><path class="cls-1" d="M30.9,34.79C24.37,34.79,21,40.44,19,46.67L14,62.5l-2.47-4.63C.45,57.22-.81,63.44,10.17,69h0C-2.06,76.94-.37,90.79.83,106.17a5.27,5.27,0,0,0,0,.57v8.56A3.71,3.71,0,0,0,4.5,119H20.33A3.71,3.71,0,0,0,24,115.3v-3H98.86v3a3.71,3.71,0,0,0,3.71,3.7H118.4a3.71,3.71,0,0,0,3.71-3.7v-6.58c1.24-20,2-28.13-5.92-36.24l-2-3c12-5.69,11-12.28-.35-11.62L111.69,62l-3.82-15.35c-1.58-6.33-5.34-11.87-11.87-11.87H65.49c0-.36-.07-.75-.12-1.19,7-1.11,9.41-4.78,9.41-12v-4.3h1.39a1.78,1.78,0,0,0,1.77-1.77V13.5a1.78,1.78,0,0,0-1.77-1.77h-5.4V2.8A2.8,2.8,0,0,0,68,0h0a2.81,2.81,0,0,0-2.8,2.8v8.93H57V2.8A2.81,2.81,0,0,0,54.16,0h0a2.81,2.81,0,0,0-2.8,2.8v8.93H46.11a1.78,1.78,0,0,0-1.77,1.77v2.06a1.78,1.78,0,0,0,1.77,1.77h1.1v3.88c0,7.28,2.78,11.73,10.35,12.46h0c0,.41.09.78.12,1.12ZM68.45,18.91H53.54v2.22H68.45V18.91ZM65.11,84.15h5a1.3,1.3,0,0,1,1.08,2l-11.8,20.12a1.29,1.29,0,0,1-1.78.45,1.33,1.33,0,0,1-.6-1.38L58.7,93l-5.86.1a1.3,1.3,0,0,1-1.32-1.28,1.33,1.33,0,0,1,.18-.68L63.3,71.05a1.3,1.3,0,0,1,2.4.84l-.59,12.26Zm-39-38.75a7,7,0,0,1,1.79-2.27A7.29,7.29,0,0,1,33.06,41H93.17c5,0,8,4.19,9,9L106.05,66H19.23v0L24,50.07a21.94,21.94,0,0,1,2-4.67Zm4.32,41.84L16.32,85.47c-3.32-.37-4.21,1-3.08,3.89l1.52,3.69a5.27,5.27,0,0,0,1.9,2.12,6.55,6.55,0,0,0,3.15.88l12.54.09c3,0,4.34-1.21,3.39-4a6.8,6.8,0,0,0-5.36-4.9Zm62.12,0,14.06-1.77c3.32-.37,4.21,1,3.08,3.89l-1.52,3.69a5.27,5.27,0,0,1-1.9,2.12,6.55,6.55,0,0,1-3.15.88l-12.54.09c-3,0-4.34-1.21-3.39-4a6.8,6.8,0,0,1,5.36-4.9Z"/></svg>