<svg xmlns="http://www.w3.org/2000/svg" shape-rendering="geometricPrecision" text-rendering="geometricPrecision" image-rendering="optimizeQuality" fill-rule="evenodd" clip-rule="evenodd" viewBox="0 0 512 512"><path fill-rule="nonzero" d="M256 0c70.69 0 134.7 28.66 181.02 74.98C483.35 121.31 512 185.31 512 256c0 70.69-28.65 134.7-74.98 181.02C390.7 483.35 326.69 512 256 512c-70.69 0-134.69-28.65-181.02-74.98C28.66 390.7 0 326.69 0 256c0-70.69 28.66-134.69 74.98-181.02C121.31 28.66 185.31 0 256 0zm73.29 367.58c9.08 0 17.3 3.69 23.26 9.65l.03.03c5.96 5.97 9.65 14.19 9.65 23.26 0 9.09-3.69 17.33-9.65 23.29a32.812 32.812 0 0 1-23.29 9.65c-9.09 0-17.33-3.69-23.29-9.65-5.96-5.96-9.65-14.2-9.65-23.29 0-9.1 3.69-17.33 9.65-23.29 5.96-5.96 14.2-9.65 23.29-9.65zm10.8 22.14a15.218 15.218 0 0 0-10.8-4.45c-4.21 0-8.02 1.71-10.78 4.47a15.199 15.199 0 0 0-4.47 10.78c0 4.21 1.71 8.03 4.47 10.78 2.76 2.76 6.57 4.47 10.78 4.47 4.22 0 8.03-1.71 10.79-4.47 2.75-2.75 4.46-6.57 4.46-10.78 0-4.22-1.7-8.05-4.45-10.8zM101.06 278.47c8.41 0 16.02 3.41 21.53 8.92 5.51 5.51 8.92 13.12 8.92 21.53 0 8.38-3.42 15.99-8.94 21.51l.02.02c-5.51 5.51-13.12 8.92-21.53 8.92-8.37 0-15.97-3.41-21.49-8.92l-.06-.05c-5.5-5.53-8.9-13.12-8.9-21.48 0-8.41 3.41-16.02 8.92-21.53l.58-.53c5.48-5.2 12.86-8.39 20.95-8.39zm9.02 21.43c-2.3-2.31-5.5-3.74-9.02-3.74-3.37 0-6.41 1.28-8.67 3.36l-.35.38a12.72 12.72 0 0 0-3.74 9.02c0 3.55 1.41 6.74 3.7 9.02l.04.04c2.28 2.29 5.47 3.7 9.02 3.7 3.52 0 6.72-1.43 9.02-3.74h.04c2.29-2.28 3.7-5.47 3.7-9.02 0-3.52-1.43-6.71-3.74-9.02zm60.95 25.22c16.1 0 30.69 6.53 41.25 17.09 10.55 10.56 17.08 25.14 17.08 41.25s-6.53 30.69-17.08 41.25c-10.56 10.55-25.15 17.08-41.25 17.08-16.11 0-30.7-6.53-41.25-17.08-10.56-10.56-17.09-25.14-17.09-41.25s6.53-30.69 17.09-41.25c10.55-10.56 25.14-17.09 41.25-17.09zm28.74 29.6c-7.35-7.36-17.52-11.91-28.74-11.91-11.23 0-21.39 4.55-28.75 11.91-7.35 7.35-11.9 17.52-11.9 28.74 0 11.22 4.55 21.39 11.9 28.74 7.36 7.35 17.52 11.91 28.75 11.91 11.22 0 21.39-4.56 28.74-11.91 7.35-7.35 11.91-17.52 11.91-28.74 0-11.22-4.56-21.39-11.91-28.74zm200.22-170.56c13.98 0 26.65 5.67 35.81 14.83 9.16 9.16 14.83 21.82 14.83 35.81 0 13.98-5.67 26.64-14.83 35.8-9.16 9.16-21.83 14.83-35.81 14.83-13.98 0-26.64-5.67-35.8-14.83-9.16-9.16-14.84-21.82-14.84-35.8 0-13.99 5.68-26.65 14.84-35.81 9.16-9.16 21.82-14.83 35.8-14.83zm23.3 27.34c-5.96-5.96-14.2-9.65-23.3-9.65-9.1 0-17.34 3.69-23.3 9.65-5.96 5.96-9.65 14.2-9.65 23.3 0 9.09 3.69 17.33 9.65 23.29 5.96 5.97 14.2 9.65 23.3 9.65 9.1 0 17.34-3.68 23.3-9.65 5.96-5.96 9.65-14.2 9.65-23.29 0-9.1-3.69-17.34-9.65-23.3zm-42.52 79.33c12.57 0 23.95 5.1 32.19 13.34 8.24 8.23 13.33 19.62 13.33 32.19 0 12.57-5.09 23.95-13.33 32.19-8.24 8.24-19.62 13.33-32.19 13.33-12.57 0-23.96-5.09-32.19-13.33-8.24-8.24-13.34-19.62-13.34-32.19 0-12.57 5.1-23.96 13.34-32.19 8.23-8.24 19.62-13.34 32.19-13.34zm19.68 25.85a27.718 27.718 0 0 0-19.68-8.16c-7.69 0-14.65 3.12-19.69 8.16a27.751 27.751 0 0 0-8.15 19.68c0 7.69 3.12 14.65 8.15 19.68 5.04 5.04 12 8.16 19.69 8.16 7.68 0 14.65-3.12 19.68-8.16a27.71 27.71 0 0 0 8.15-19.68c0-7.69-3.11-14.65-8.15-19.68zm-137.79 76.67c8.43 0 16.07 3.42 21.6 8.95 5.52 5.52 8.95 13.16 8.95 21.6 0 8.43-3.43 16.07-8.95 21.6-5.53 5.52-13.17 8.95-21.6 8.95-8.43 0-16.07-3.43-21.6-8.95-5.53-5.53-8.95-13.17-8.95-21.6 0-8.44 3.42-16.08 8.95-21.6 5.53-5.53 13.16-8.95 21.6-8.95zm9.09 21.45a12.825 12.825 0 0 0-9.09-3.76c-3.55 0-6.77 1.44-9.09 3.76a12.834 12.834 0 0 0-3.77 9.1c0 3.55 1.44 6.77 3.77 9.09 2.32 2.33 5.54 3.77 9.09 3.77s6.77-1.44 9.09-3.77c2.33-2.32 3.77-5.54 3.77-9.09s-1.44-6.77-3.77-9.1zM150.66 87.44c8.08 0 15.4 3.28 20.69 8.57 5.3 5.3 8.58 12.62 8.58 20.7s-3.28 15.4-8.58 20.69a29.139 29.139 0 0 1-20.69 8.57c-8.08 0-15.4-3.27-20.69-8.57a29.147 29.147 0 0 1-8.58-20.69c0-8.08 3.28-15.4 8.58-20.7a29.18 29.18 0 0 1 20.69-8.57zm8.19 21.08c-2.1-2.1-4.99-3.39-8.19-3.39-3.2 0-6.09 1.29-8.19 3.39a11.556 11.556 0 0 0-3.39 8.19c0 3.19 1.3 6.09 3.39 8.18 2.1 2.1 4.99 3.4 8.19 3.4 3.2 0 6.09-1.3 8.19-3.4a11.55 11.55 0 0 0 3.39-8.18c0-3.2-1.3-6.1-3.39-8.19zm69.5-50.79c7.45-.83 14.53 1.43 19.95 5.76 5.44 4.35 9.23 10.77 10.06 18.24a27 27 0 0 1-5.75 19.94 27.133 27.133 0 0 1-18.24 10.07 27.05 27.05 0 0 1-19.94-5.76c-5.45-4.35-9.23-10.77-10.07-18.23a27.061 27.061 0 0 1 5.76-19.95c4.35-5.44 10.77-9.23 18.23-10.07zm8.96 19.58a9.555 9.555 0 0 0-7.02-2.03c-2.6.3-4.84 1.61-6.35 3.51a9.555 9.555 0 0 0-2.03 7.02 9.45 9.45 0 0 0 3.5 6.35 9.58 9.58 0 0 0 7.03 2.03 9.45 9.45 0 0 0 6.35-3.5 9.53 9.53 0 0 0 2.02-7.03 9.45 9.45 0 0 0-3.5-6.35zm144.04 43.41c7.47 0 14.26 3.04 19.19 7.96l.05.05c4.91 4.94 7.95 11.72 7.95 19.17 0 7.47-3.05 14.25-7.96 19.19l-.06.05c-4.93 4.91-11.71 7.95-19.17 7.95-7.48 0-14.26-3.05-19.19-7.97l-.03-.03c-4.92-4.92-7.96-11.71-7.96-19.19 0-7.46 3.04-14.25 7.96-19.19l.06-.05c4.93-4.91 11.71-7.94 19.16-7.94zm6.72 20.43a9.49 9.49 0 0 0-6.72-2.75c-2.64 0-5.02 1.06-6.71 2.75l-.04.04c-1.69 1.69-2.74 4.07-2.74 6.71 0 2.64 1.05 5.02 2.76 6.74 1.71 1.7 4.1 2.76 6.73 2.76 2.65 0 5.02-1.05 6.72-2.75l.03-.03c1.7-1.7 2.75-4.08 2.75-6.72 0-2.64-1.05-5.02-2.75-6.71l-.03-.04zm-77.73-76.27c11.95 0 22.77 4.85 30.61 12.68 7.83 7.83 12.67 18.65 12.67 30.61 0 11.94-4.84 22.77-12.67 30.6-7.84 7.83-18.66 12.68-30.61 12.68s-22.77-4.85-30.61-12.68c-7.83-7.83-12.67-18.65-12.67-30.6 0-11.93 4.85-22.74 12.69-30.59l-.02-.02c7.84-7.83 18.66-12.68 30.61-12.68zm18.1 25.19c-4.63-4.63-11.03-7.5-18.1-7.5-7.07 0-13.47 2.87-18.1 7.5h-.03c-4.61 4.61-7.47 11-7.47 18.1 0 7.06 2.87 13.46 7.5 18.09 4.63 4.63 11.03 7.5 18.1 7.5 7.07 0 13.47-2.87 18.1-7.5 4.63-4.63 7.5-11.03 7.5-18.09 0-7.07-2.87-13.47-7.5-18.1zm-115.4 137.34c13.26 0 25.3 5.39 34.03 14.11l.06.05c8.7 8.74 14.09 20.76 14.09 34.01 0 13.31-5.4 25.35-14.11 34.07-8.72 8.72-20.77 14.11-34.07 14.11s-25.35-5.39-34.07-14.11c-8.71-8.72-14.11-20.76-14.11-34.07 0-13.26 5.39-25.29 14.11-34.03l.06-.05c8.73-8.71 20.76-14.09 34.01-14.09zm21.56 26.58c-5.5-5.49-13.12-8.9-21.56-8.9a30.4 30.4 0 0 0-21.56 8.9l-.04.03c-5.49 5.5-8.89 13.12-8.89 21.56 0 8.42 3.41 16.05 8.93 21.56a30.371 30.371 0 0 0 21.56 8.93c8.42 0 16.04-3.41 21.56-8.93a30.371 30.371 0 0 0 8.93-21.56c0-8.44-3.4-16.06-8.9-21.56l-.03-.03zm65.31-75.12c12.56 0 23.95 5.1 32.19 13.33 8.23 8.24 13.33 19.63 13.33 32.19 0 12.57-5.1 23.96-13.33 32.2-8.24 8.23-19.62 13.33-32.19 13.33-12.57 0-23.96-5.1-32.19-13.33-8.24-8.24-13.34-19.63-13.34-32.2 0-12.56 5.1-23.95 13.34-32.19 8.23-8.23 19.62-13.33 32.19-13.33zm19.68 25.84c-5.04-5.03-12-8.15-19.68-8.15-7.69 0-14.65 3.12-19.69 8.15-5.04 5.04-8.15 12-8.15 19.68 0 7.69 3.11 14.65 8.15 19.69 5.04 5.04 12 8.15 19.69 8.15 7.68 0 14.64-3.11 19.68-8.15 5.04-5.04 8.15-12 8.15-19.69 0-7.68-3.11-14.64-8.15-19.68zm-100.05-85.67c12.67-1.42 24.72 2.43 33.95 9.8 9.25 7.38 15.68 18.3 17.1 30.99 1.42 12.67-2.43 24.72-9.8 33.95-7.38 9.25-18.3 15.69-30.99 17.11-12.67 1.42-24.72-2.43-33.95-9.8-9.25-7.39-15.68-18.31-17.11-31-1.42-12.66 2.44-24.71 9.8-33.94 7.39-9.25 18.31-15.69 31-17.11zm22.96 23.62c-5.72-4.56-13.18-6.95-21.03-6.07-7.82.88-14.55 4.84-19.11 10.54a28.591 28.591 0 0 0-6.07 21.03c.88 7.82 4.85 14.56 10.55 19.11a28.51 28.51 0 0 0 21.02 6.07 28.43 28.43 0 0 0 19.11-10.54 28.504 28.504 0 0 0 6.07-21.03c-.87-7.83-4.84-14.56-10.54-19.11zm38.38 162.3c9.92 0 18.9 4.02 25.4 10.52 6.49 6.5 10.52 15.48 10.52 25.39 0 9.92-4.03 18.9-10.52 25.4-6.5 6.5-15.48 10.52-25.4 10.52-9.92 0-18.9-4.02-25.39-10.52-6.5-6.5-10.52-15.48-10.52-25.4 0-9.91 4.02-18.89 10.52-25.39a35.766 35.766 0 0 1 25.39-10.52zm12.89 23.03c-3.3-3.3-7.86-5.34-12.89-5.34s-9.59 2.04-12.89 5.34c-3.3 3.29-5.34 7.85-5.34 12.88 0 5.04 2.04 9.6 5.34 12.89 3.3 3.3 7.86 5.34 12.89 5.34s9.59-2.04 12.89-5.34c3.3-3.29 5.34-7.85 5.34-12.89 0-5.03-2.04-9.59-5.34-12.88zM117.7 152.74c15.55 0 29.63 6.31 39.83 16.5 10.18 10.19 16.49 24.27 16.49 39.82 0 15.56-6.3 29.64-16.49 39.83-10.2 10.19-24.28 16.5-39.83 16.5-15.56 0-29.64-6.31-39.83-16.5-10.19-10.19-16.5-24.27-16.5-39.83 0-15.55 6.31-29.63 16.5-39.82 10.19-10.2 24.28-16.5 39.83-16.5zm27.32 29c-6.99-6.99-16.65-11.31-27.32-11.31-10.67 0-20.33 4.32-27.32 11.31-6.99 6.99-11.32 16.66-11.32 27.32 0 10.67 4.32 20.33 11.32 27.32 6.99 7 16.65 11.32 27.32 11.32 10.67 0 20.33-4.32 27.32-11.32 6.99-6.99 11.31-16.65 11.31-27.32 0-10.66-4.32-20.33-11.31-27.32zm279.49-94.25c-43.12-43.13-102.7-69.8-168.51-69.8-65.81 0-125.39 26.67-168.51 69.8-43.13 43.12-69.8 102.7-69.8 168.51 0 65.81 26.67 125.39 69.8 168.51 43.12 43.13 102.7 69.8 168.51 69.8 65.81 0 125.39-26.67 168.51-69.8 43.13-43.12 69.8-102.7 69.8-168.51 0-65.81-26.67-125.39-69.8-168.51z"/></svg>