<?xml version="1.0" encoding="utf-8"?><svg version="1.1" id="Layer_1" xmlns="http://www.w3.org/2000/svg" xmlns:xlink="http://www.w3.org/1999/xlink" x="0px" y="0px" viewBox="0 0 116.28 122.88" style="enable-background:new 0 0 116.28 122.88" xml:space="preserve"><style type="text/css">.st0{fill-rule:evenodd;clip-rule:evenodd;}</style><g><path class="st0" d="M42.85,22.45L77.49,8l29.87,30.77L93.42,73.3c-23.64,6.55-45.66,16.11-66.45,27.96l-4.22-5.24l41.23-40.88 c0.83,0.38,1.73,0.57,2.64,0.57c0,0,0.01,0,0.01,0c3.56,0,6.44-2.88,6.44-6.44c0-3.55-2.88-6.44-6.44-6.44 c-3.55,0-6.44,2.88-6.44,6.44c0,1.15,0.3,2.23,0.83,3.16L20.22,92.97l-5.66-5.17C27.01,67.42,36.53,45.69,42.85,22.45L42.85,22.45z M87.36,0l28.93,29.64l-2.64,2.57l-2.64,2.57L82.08,5.13l2.64-2.57L87.36,0L87.36,0z M18.99,107.36 c13.56,12.48,21.54,7.04,32.83-0.68c9.34-6.38,20.63-14.09,37.75-16.64c1.22-4.1,5.02-7.09,9.51-7.09c5.48,0,9.92,4.44,9.92,9.92 c0,5.48-4.44,9.92-9.92,9.92c-3.85,0-7.19-2.19-8.83-5.4c-15.32,2.43-25.69,9.51-34.28,15.37c-14.47,9.88-24.58,16.78-42.3-0.24 c-1.19,0.48-2.46,0.73-3.74,0.73c0,0-0.01,0-0.01,0c-5.48,0-9.92-4.44-9.92-9.92c0-5.48,4.44-9.92,9.92-9.92 c5.48,0,9.92,4.44,9.92,9.92c0,0,0,0.01,0,0.01C19.84,104.73,19.55,106.09,18.99,107.36L18.99,107.36L18.99,107.36z"/></g></svg>