<?xml version="1.0" encoding="utf-8"?><svg version="1.1" id="Layer_1" xmlns="http://www.w3.org/2000/svg" xmlns:xlink="http://www.w3.org/1999/xlink" x="0px" y="0px" viewBox="0 0 122.88 122.66" style="enable-background:new 0 0 122.88 122.66" xml:space="preserve"><g><path d="M90.01,27.12c0.12,0.07,0.23,0.15,0.35,0.22c0.33,0.19,0.65,0.4,0.97,0.62c0.66,0.46,1.28,0.98,1.85,1.55 c0.65,0.65,1.22,1.35,1.71,2.08c0.32,0.42,0.62,0.86,0.9,1.32c2.73-0.25,4.92-1.36,6.56-3c2.02-2.02,3.22-4.85,3.61-7.92 c0.04-0.33,0.22-0.61,0.46-0.8l8.99-7.12c0.48-0.38,1.15-0.33,1.57,0.09l0,0l5.54,5.54c0.43,0.43,0.46,1.1,0.1,1.56l-14.47,20.19 c-0.75,1.05-1.26,1.82-1.66,2.45c-2,3.07-2.14,3.3-7.51,4.09l-5.49,0.81l-0.06,0.07c-1.61,1.72-2.52,2.69-4.34,3.43l-3.89,10.41 c4.24,1.48,6.73,5.88,3.14,9.06c-2.71,2.4-5.42-0.28-9.2,1.51c-2.29,1.08-3.78,3.49-5.51,6.27C68.86,91.39,62.41,102,52.88,110.35 c-5.08,4.45-10.74,7.67-16.45,11.21c-1.67,1.22-3.5,1.35-5.05,0.76c-2-0.77-3.53-2.74-3.6-5.1c-0.12-3.79,3.71-5.38,6.55-7.57 C53.5,94.8,54.37,88.54,66.41,64.33c0.92-1.79,1.94-3.13,3.05-4.02c0.63-0.5,1.28-0.86,1.97-1.06c0.01-0.04,0.01-0.07,0.02-0.11 c0.02-0.06,0.04-0.11,0.06-0.16l3.51-8.77l-2.71-2.71l-8.81,3.38c-0.18,0.82-0.57,1.59-1.15,2.32c-0.89,1.11-2.23,2.12-4.02,3.05 c-24.2,12.05-30.47,12.91-45.31,32.09c-2.19,2.83-3.78,6.67-7.57,6.55c-2.37-0.08-4.34-1.6-5.1-3.6c-0.59-1.55-0.46-3.38,0.76-5.05 c3.55-5.71,6.76-11.37,11.21-16.45c8.35-9.53,18.96-15.97,30.78-20.76c2.77-1.73,5.18-3.22,6.27-5.51c1.79-3.78-0.89-6.49,1.51-9.2 c3.18-3.6,7.59-1.09,9.07,3.17l10.61-4.07l2.63-4.39l1.76-6.25c1.21-4.29,1.72-4.63,4.24-6.29c0.56-0.37,1.24-0.82,2.09-1.43 l20.4-14.81c0.48-0.35,1.13-0.28,1.54,0.12l0,0l5.37,5.37c0.45,0.45,0.46,1.16,0.05,1.62l-6.6,8.6c-0.18,0.23-0.43,0.38-0.69,0.44 l0,0c-3.32,0.72-6.07,1.93-8.03,3.79C91.54,21.86,90.39,24.13,90.01,27.12L90.01,27.12z M88.23,28.9 c-0.51-0.24-0.77-0.78-0.66-1.31c0.33-3.95,1.78-6.93,4.1-9.15c2.21-2.1,5.19-3.47,8.73-4.3l5.75-7.49l-3.92-3.92L82.66,16.96 c-0.86,0.63-1.58,1.1-2.17,1.49c-1.91,1.26-2.3,1.52-3.27,4.95l-1.81,6.4l0,0c-0.03,0.1-0.07,0.2-0.12,0.29l-1.54,2.57 c0.02,0.25-0.03,0.51-0.17,0.74c-1.61,2.64-2,5.59-1.36,8.3c0.66,2.76,2.4,5.29,5.03,7c0.55,0.36,0.7,1.09,0.35,1.64 c-0.05,0.07-0.1,0.14-0.16,0.2l-3.26,8.15l9.05,2.56l3.8-10.19c0.11-0.35,0.37-0.64,0.74-0.77c1.5-0.53,2.28-1.27,3.55-2.62 c0.05-0.07,0.1-0.14,0.16-0.2c2.25-2.25,3.37-5.19,3.37-8.14c0-2.24-0.65-4.49-1.96-6.42c-0.43-0.57-0.89-1.1-1.38-1.59 c-0.74-0.74-1.56-1.4-2.45-1.98C88.79,29.18,88.52,29.03,88.23,28.9L88.23,28.9z M96.62,35.21c0.42,1.34,0.62,2.73,0.62,4.12 c0,2.35-0.59,4.69-1.78,6.8l3.18-0.47c4.31-0.63,4.41-0.8,5.86-3.03c0.45-0.7,1.01-1.56,1.72-2.54l13.91-19.4l-4.08-4.08 l-7.81,6.19c-0.52,3.39-1.92,6.52-4.21,8.82C102.14,33.49,99.67,34.8,96.62,35.21L96.62,35.21z M71.13,45.42 c-0.53-1.01-0.94-2.07-1.2-3.17c-0.47-1.96-0.49-4.02-0.02-6.04l-8.58,3.29l2.51,8.73L71.13,45.42L71.13,45.42z M87.86,35.04 c1.15,1.15,1.73,2.67,1.73,4.18c0,1.51-0.58,3.02-1.73,4.18c-1.15,1.15-2.67,1.73-4.18,1.73c-1.51,0-3.02-0.58-4.18-1.73v0 c-1.15-1.15-1.73-2.67-1.73-4.18c0-1.51,0.58-3.02,1.73-4.18v0h0c1.15-1.15,2.67-1.73,4.18-1.73 C85.19,33.31,86.7,33.88,87.86,35.04L87.86,35.04L87.86,35.04z M87.21,39.22c0-0.9-0.34-1.81-1.03-2.5h0 c-0.69-0.69-1.59-1.03-2.5-1.03c-0.9,0-1.81,0.35-2.5,1.03l0,0l0,0c-0.69,0.69-1.03,1.59-1.03,2.5c0,0.9,0.34,1.81,1.03,2.5l0,0 c0.69,0.69,1.59,1.03,2.5,1.03c0.9,0,1.81-0.35,2.5-1.03C86.87,41.02,87.21,40.12,87.21,39.22L87.21,39.22z"/></g></svg>