<?xml version="1.0" encoding="utf-8"?><svg version="1.1" id="Layer_1" xmlns="http://www.w3.org/2000/svg" xmlns:xlink="http://www.w3.org/1999/xlink" x="0px" y="0px" viewBox="0 0 122.88 70.08" style="enable-background:new 0 0 122.88 70.08" xml:space="preserve"><style type="text/css">.st0{fill-rule:evenodd;clip-rule:evenodd;}</style><g><path class="st0" d="M17.22,16.28c0.56-1,1.16-1.9,1.78-2.69c1.85-2.32,3.74-3.58,5.64-3.79c0.5-0.05,1-0.08,1.48-0.08 c1.75,0,3.36,0.34,4.77,1.01c0.01,0.18,0.05,0.35,0.1,0.53l6.22,21.77h-7.03c-2.35-6.16-5.14-10.73-8.35-13.69 c-0.72-0.67-1.47-1.26-2.25-1.77C18.81,17.06,18.02,16.63,17.22,16.28L17.22,16.28z M122.88,27.48c0,2.74-1.13,5.11-3.43,7.14 c-2.29,2.03-4.98,2.87-8.06,2.5l-0.71-0.05c-4.31,8.72-1.92,14.12-1.92,23.29c0,3.35-1.4,5.74-4.16,7.19v2.53H18.52v-2.45 c-2.87-1.4-4.32-3.82-4.32-7.27c0-9.14,2.47-14.61-1.92-23.29l-0.68,0.05c-3.08,0.37-5.8-0.47-8.12-2.5C1.16,32.59,0,30.22,0,27.48 c0-2.61,1.13-4.87,3.4-6.8c2.27-1.9,5.01-2.85,8.2-2.85c6.93,0,12.49,5.98,16.68,17.92l28.32,0.7c1.89,0.05,3.34,0.82,4.32,2.45 c0.97-1.63,2.43-2.37,4.32-2.45l17.26-0.7c0.45,0.88,1.37,1.49,2.43,1.49h9.04v-0.01c1.19,0,2.28-0.78,2.62-1.98 c0.78-2.79,2.13-5.52,4.02-8.18c1.94-2.72,4.47-5.38,7.59-7.99l0-0.01c0.32-0.27,0.57-0.6,0.74-0.97c0.8-0.18,1.63-0.27,2.48-0.27 c3.19,0,5.9,0.95,8.14,2.82C121.77,22.52,122.88,24.82,122.88,27.48L122.88,27.48z M106.44,16.99 c-6.59,5.5-10.75,11.33-12.49,17.52h-9.04l6.24-23.08c1.76-1.13,3.79-1.71,6.11-1.71c0.45,0,0.95,0.03,1.45,0.08 C101.57,10.17,104.12,12.57,106.44,16.99L106.44,16.99z M82.19,34.51h-10L73.64,6.4c1.82-1.16,4.03-1.76,6.64-1.76 c0.77,0,1.58,0.05,2.4,0.16c3.55,0.53,5.79,2.07,6.72,4.58c-0.41,0.34-0.71,0.81-0.86,1.36l-6.2,22.91 C82.24,33.92,82.19,34.21,82.19,34.51L82.19,34.51z M69.47,34.51h-4.39c-0.77,0.05-2.16,0.45-4.17,1.24 c-1.76-0.79-2.95-1.19-3.56-1.24h-4.71l-1.45-28.4C51.59,2.03,54.88,0,61.07,0c5.6,0,9.19,1.44,10.8,4.34 c-0.55,0.47-0.9,1.15-0.94,1.92l-1.44,27.9C69.47,34.28,69.47,34.4,69.47,34.51L69.47,34.51z M49.92,34.51h-9.48l-6.85-24 c0.56-0.97,1.21-1.87,1.92-2.64c1.63-1.79,3.37-2.82,5.16-3.08c0.82-0.1,1.63-0.16,2.4-0.16c2.07,0,3.88,0.37,5.43,1.1 c-0.02,0.17-0.03,0.34-0.02,0.52L49.92,34.51L49.92,34.51z"/></g></svg>